<?xml version="1.0" encoding="utf-8"?>
<!-- Generator: Adobe Illustrator 18.0.0, SVG Export Plug-In . SVG Version: 6.00 Build 0)  -->
<!DOCTYPE svg PUBLIC "-//W3C//DTD SVG 1.1//EN" "http://www.w3.org/Graphics/SVG/1.1/DTD/svg11.dtd">
<svg version="1.1" id="Layer_1" xmlns="http://www.w3.org/2000/svg" xmlns:xlink="http://www.w3.org/1999/xlink" x="0px" y="0px"
	 viewBox="678 -45 591.6 765.8" enable-background="new 678 -45 591.6 765.8" xml:space="preserve">
<path fill="#EA7624" d="M976.2,704.3L976.2,704.3l205.3-196.6L924.3,629.7l0,0c-2.7,1.1-5.4,2.7-8.1,4.9
	c-23.8,16.2-31.3,46.5-16.7,67.5s45.4,24.8,69.1,8.6C971.3,708.6,973.5,706.4,976.2,704.3z"/>
<path fill="#EA7624" d="M981-44.9c-163.7-3.8-299.2,125.9-303,289c-3.2,134,83.2,249.6,204.7,288.4l-0.5,71.8l166.9-65.4
	c117.8-45.9,217.1-145.8,220.4-280.9C1273.8,94.4,1144.2-41.1,981-44.9z M974,467.1c-120.5,0-218.2-97.8-218.2-218.2
	S853.6,30.7,974,30.7s218.2,97.8,218.2,218.2S1094.5,467.1,974,467.1z"/>
</svg>
