<?xml version="1.0" encoding="utf-8"?>
<!-- Generator: Adobe Illustrator 18.0.0, SVG Export Plug-In . SVG Version: 6.00 Build 0)  -->
<!DOCTYPE svg PUBLIC "-//W3C//DTD SVG 1.1//EN" "http://www.w3.org/Graphics/SVG/1.1/DTD/svg11.dtd">
<svg version="1.1" id="Layer_1" xmlns="http://www.w3.org/2000/svg" xmlns:xlink="http://www.w3.org/1999/xlink" x="0px" y="0px"
	 viewBox="0 0 300 110" enable-background="new 0 0 300 110" xml:space="preserve">
<g>
	<path fill="#FFFFFF" d="M72.6,62.3c0,5.5,0,5.7,3.5,5.7v1.1H65.4V68h0.8c2.9,0,2.9-0.5,2.9-5.7v-6c0-5.4-0.3-5.4-3.8-5.4v-1.1
		c1.3-0.1,2.6-0.3,4.5-0.7c0.7-0.1,1.9-0.6,2.7-0.6V62.3z"/>
	<path fill="#FFFFFF" d="M70.4,35.9c1.4,0,2.5,1.2,2.5,2.6c0,1.4-1.1,2.6-2.5,2.6c-1.4,0-2.5-1.2-2.5-2.6
		C67.9,37.1,68.9,35.9,70.4,35.9z"/>
	<path fill="#FFFFFF" d="M95,43.7c0-5.5,0-5.7-3.5-5.7v-1.1c2,0,4.3-0.5,5.1-0.7c1.3-0.3,1.4-0.3,1.8-0.3v26.6c0,5.4,0,5.7,3.3,5.7
		v1.1c-2.5,0.1-5.3,0.4-6.2,0.6c-0.3-1.2-0.3-2.4-0.3-3.6c-1.1,1-3.7,3.6-7.6,3.6c-4.5,0-9.4-4-9.4-10.6c0-6.6,4.5-10.8,9.6-10.8
		c2.9,0,5.5,1.4,7.2,2.9V43.7z M95,52.9C93.9,52,91.6,50,88.5,50c-6.3,0-6.3,7.6-6.3,9.1c0,7.9,4.2,9.3,6.5,9.3c0.6,0,3.7,0,6.3-3.5
		V52.9z"/>
	<path fill="#FFFFFF" d="M108.1,56.1c0,0.7-0.1,1.5-0.1,2.3c0,2.5,0.1,10.2,6.5,10.2c1.1,0,4.4-0.1,6.3-4h1.1
		c-1.3,4.1-5.4,5.2-8.1,5.2c-4.3,0-9.8-3.3-9.8-10.5c0-6.1,4-10.8,9.6-10.8c5.1,0,8.1,3.8,8.3,7.5H108.1z M117.6,55.1
		c0.1-0.3,0.1-0.5,0.1-1c0-3.3-2.3-4.4-4.3-4.4c-4.4,0-5,4.1-5.2,5.4H117.6z"/>
	<path fill="#FFFFFF" d="M146.5,65.5c-0.1,2.2-1.3,4.1-4,4.1c-3.2,0-3.6-2.3-3.9-3.5c-2.4,1.7-5.2,3.5-8,3.5c-2.2,0-4.9-1.3-4.9-4.2
		c0-2.8,2.3-5.2,9.1-8l3.8-1.5v-1c0-2.9-0.4-5.3-4.5-5.3c-1.7,0-3.7,0.4-4.1,2.1c-0.2,1-0.4,2.7-2.1,2.7c-0.7,0-1.5-0.5-1.5-1.4
		c0-1.3,2-4.5,8.1-4.5c7.5,0,7.5,4.5,7.5,6.9v8c0,2.9,0,4.3,1.5,4.3c0.6,0,1.7-0.3,2-2.3H146.5z M138.6,57.1l-2.6,1.1
		c-2.6,1-6.2,3-6.2,6.3c0,1.7,0.9,3.4,2.9,3.4c2.2,0,5.1-2.3,6-3V57.1z"/>
</g>
<g>
	<g>
		<g>
			<path fill="#FFFFFF" d="M29.5,27.5c-11.9-0.3-21.7,9.1-22,21c-0.2,9.7,6.1,18.1,14.9,20.9l0,5.2l12.1-4.7
				c8.6-3.3,15.8-10.6,16-20.4C50.7,37.6,41.3,27.8,29.5,27.5z M28.9,64.8C20.1,64.8,13,57.7,13,49c0-8.8,7.1-15.8,15.8-15.9
				c8.8,0,15.9,7.1,15.9,15.8C44.7,57.7,37.6,64.8,28.9,64.8z"/>
		</g>
	</g>
	<path fill="#FFFFFF" d="M29.1,81.9L29.1,81.9L44,67.6l-18.6,8.8l0,0c-0.2,0.1-0.4,0.2-0.6,0.3c-1.7,1.2-2.3,3.4-1.2,4.9
		c1.1,1.5,3.3,1.8,5,0.6C28.8,82.2,29,82.1,29.1,81.9z"/>
</g>
<g>
	<rect x="156.5" y="31.5" fill="#FFFFFF" width="1.3" height="45.4"/>
</g>
<rect x="161.6" y="56.2" fill="none" width="137.4" height="26.3"/>
<text transform="matrix(1 0 0 1 161.5869 68.3555)" fill="#FFFFFF" font-family="'HelveticaNeueLTStd-Cn'" font-size="17">Venture Accelerator</text>
<rect x="161.6" y="41" fill="none" width="137.4" height="11.7"/>
<text transform="matrix(1 0 0 1 161.5869 50.3301)"><tspan x="0" y="0" fill="#FFFFFF" font-family="'HelveticaNeueLTStd-Cn'" font-size="13">No</tspan><tspan x="13.2" y="0" fill="#FFFFFF" font-family="'HelveticaNeueLTStd-Cn'" font-size="13">r</tspan><tspan x="17.9" y="0" fill="#FFFFFF" font-family="'HelveticaNeueLTStd-Cn'" font-size="13">theastern University’s</tspan></text>
</svg>
