<?xml version="1.0" encoding="utf-8"?>
<!-- Generator: Adobe Illustrator 19.1.0, SVG Export Plug-In . SVG Version: 6.00 Build 0)  -->
<svg version="1.1" id="Layer_1" xmlns="http://www.w3.org/2000/svg" xmlns:xlink="http://www.w3.org/1999/xlink" x="0px" y="0px"
	 viewBox="0 0 216 216" style="enable-background:new 0 0 216 216;" xml:space="preserve">
<style type="text/css">
	.st0{fill:#F2AD7A;}
</style>
<path class="st0" d="M174.7,93.2c-0.3-4-3.3-7.1-7.2-7.1h-25.2V74.2c1.4-0.8,31.5-17.2,32.4-36.2c-0.3-4-3.3-7.1-7.2-7.1h-25.2v-9.6
	c0-3.7-3-6.8-6.6-6.8H80.3c-3.6,0-6.6,3.1-6.6,6.8V31H48.5c-3.9,0-6.9,3.1-7.2,7.1C42.2,57,72,73.4,73.7,74.2v11.9H48.5
	c-3.9,0-6.9,3.1-7.2,7.1c0.8,18.9,30.7,35.3,32.4,36.2v11.9H48.5c-3.9,0-6.9,3.1-7.2,7.1c0.8,18.9,30.7,35.3,32.4,36.2v10.2
	c0,3.7,3,6.8,6.6,6.8h55.3c3.6,0,6.6-3.1,6.6-6.8v-10.2c1.4-0.8,31.5-17.2,32.4-36.2c-0.3-4-3.3-7.1-7.2-7.1h-25.2v-11.9
	C143.7,128.5,173.8,112.1,174.7,93.2z M108,182.2c-10.2,0-18.5-8.5-18.5-18.9c0-10.5,8.3-18.9,18.5-18.9c10.2,0,18.5,8.5,18.5,18.9
	C126.5,173.7,118.2,182.2,108,182.2z M108,127.1c-10.2,0-18.5-8.5-18.5-18.9c0-10.5,8.3-18.9,18.5-18.9c10.2,0,18.5,8.5,18.5,18.9
	C126.5,118.6,118.2,127.1,108,127.1z M108,72C97.8,72,89.5,63.5,89.5,53c0-10.5,8.3-18.9,18.5-18.9c10.2,0,18.5,8.5,18.5,18.9
	C126.5,63.5,118.2,72,108,72z"/>
</svg>
