<?xml version="1.0" encoding="utf-8"?>
<!-- Generator: Adobe Illustrator 19.1.0, SVG Export Plug-In . SVG Version: 6.00 Build 0)  -->
<svg version="1.1" id="Layer_1" xmlns="http://www.w3.org/2000/svg" xmlns:xlink="http://www.w3.org/1999/xlink" x="0px" y="0px"
	 viewBox="0 0 216 216" style="enable-background:new 0 0 216 216;" xml:space="preserve">
<style type="text/css">
	.st0{fill:#D1D3D4;}
</style>
<path class="st0" d="M186.3,101.6C186.2,101.6,186.2,101.6,186.3,101.6l-63.9-62.7c-3.7-3.7-9.7-3.6-13.4,0.1
	c-3.7,3.7-3.6,9.7,0.1,13.4l47.3,46.4h-124c-5.2,0-9.5,4.2-9.5,9.5c0,5.2,4.2,9.5,9.5,9.5h123.8l-47.1,45.7
	c-3.8,3.6-3.8,9.7-0.2,13.4c1.9,1.9,4.3,2.9,6.8,2.9c2.4,0,4.8-0.9,6.6-2.7l70.8-68.8L186.3,101.6z"/>
</svg>
